# xmcd
#
# Track frame offsets:
#	150
#	11112
#	23112
#	34394
#	44568
#	57073
#	69320
#	79552
#	92059
#	102616
#	113593
#	124982
#	139094
#	157994
#	178496
#	200265
#	218472
#	241114
#	266916
#	288301
#	307543
#
# Disc length: 4314 seconds
#
# Revision: 1
# Processed by: cddbd v1.5.2PL0 Copyright (c) Steve Scherf et al.
# Submitted via: audiograbber 1.83.01
#
DISCID=2110d815
DTITLE=Buck Owens and Peter Cetera - AllTime Gratest Hits and World Falling Down
DYEAR=2000
DGENRE=Country
TTITLE0=Act Naturally -Buck Owens
TTITLE1=Streets Of Bakersfield -Buck Owens
TTITLE2=Together Again -Buck Owens
TTITLE3=Before You Go -Buck Owens
TTITLE4=Made In Japan -Buck Owens
TTITLE5=Folling Araund -Buck Owens
TTITLE6=I´ve Got A Tiger By The Tail -Buck Owens
TTITLE7=Under Your Spell Again -Buck Owens
TTITLE8=Think Of Me -Buck Owens
TTITLE9=Who Gonna Move You Grass -Buck Owens
TTITLE10=Who Gonna Move You Grass -Buck Owens
TTITLE11=Big In Vegas Buck Owens
TTITLE12=Restless Heart -Peter Cetera
TTITLE13=Even A Fool Can See -Peter Cetera
TTITLE14=Fells Like Heaven -Peter Cetera
TTITLE15=Wild Ways -Peter Cetera
TTITLE16=Wold Falling Down -Peter Cetera
TTITLE17=Man In Me -Peter Cetera
TTITLE18=Where There Is No Tomorrow -Peter Cetera
TTITLE19=The Last Place God Made -Peter Cetera
TTITLE20=Dip Your Wings -Peter Cetera
EXTD=
EXTT0=
EXTT1=
EXTT2=
EXTT3=
EXTT4=
EXTT5=
EXTT6=
EXTT7=
EXTT8=
EXTT9=
EXTT10=
EXTT11=
EXTT12=
EXTT13=
EXTT14=
EXTT15=
EXTT16=
EXTT17=
EXTT18=
EXTT19=
EXTT20=
PLAYORDER=
